<svg xmlns="http://www.w3.org/2000/svg"  viewBox="0 0 48 48" width="48px" height="48px" baseProfile="basic"><linearGradient id="wDKWt2MfHESD_6tlQgC3Ra" x1="11.991" x2="30.834" y1="3.926" y2="41.245" gradientUnits="userSpaceOnUse"><stop offset="0" stop-color="#2aa4f4"/><stop offset="1" stop-color="#007ad9"/></linearGradient><path fill="url(#wDKWt2MfHESD_6tlQgC3Ra)" d="M31.343,6H9C7.343,6,6,7.343,6,9v30c0,1.657,1.343,3,3,3h30c1.657,0,3-1.343,3-3V16.657	c0-1.061-0.421-2.078-1.172-2.828l-6.657-6.657C33.421,6.421,32.404,6,31.343,6z"/><path fill="#fff" d="M15,15v18c0,0.552,0.448,1,1,1h3c0.552,0,1-0.448,1-1V19h4c1.381,0,4,0,4,4v10c0,0.552,0.448,1,1,1h3	c0.552,0,1-0.448,1-1V21.5c0-4.142-3.358-7.5-7.5-7.5H16C15.448,14,15,14.448,15,15z"/></svg>